<svg version="1.1" id="Layer_1" xmlns="http://www.w3.org/2000/svg" xmlns:xlink="http://www.w3.org/1999/xlink" x="0px" y="0px"
	 width="100%" viewBox="0 0 1024 1024" enable-background="new 0 0 1024 1024" xml:space="preserve">
<path fill="#FFFFFF" opacity="1.000000" stroke="none" 
	d="
M87.000000,1025.000000 
	C58.338734,1025.000000 29.677465,1025.000000 1.012149,1025.000000 
	C1.008099,683.736328 1.008099,342.472717 1.008099,1.104535 
	C342.333313,1.104535 683.666626,1.104535 1025.000000,1.101250 
	C1025.000000,37.424473 1025.000000,73.750984 1024.790405,110.533592 
	C1024.580811,110.989693 1024.161743,110.992516 1024.091431,110.529068 
	C1024.021118,74.076645 1024.021118,38.087673 1024.021118,2.445498 
	C682.886597,2.445498 342.559937,2.445498 2.295362,2.445498 
	C2.295362,343.008179 2.295362,683.354004 2.295362,1023.979126 
	C4.395024,1023.979126 6.204138,1023.975342 8.013232,1023.979614 
	C34.336765,1024.042480 60.660301,1024.106445 86.988365,1024.377686 
	C86.992897,1024.585205 87.000000,1025.000000 87.000000,1025.000000 
z"/>
<path fill="#FFFFFF" opacity="1.000000" stroke="none" 
	d="
M1024.161743,110.992516 
	C1024.161743,110.992516 1024.580811,110.989693 1024.790405,110.994843 
	C1025.000000,387.029388 1025.000000,663.058777 1024.792969,939.552856 
	C1024.585815,940.017517 1024.171387,940.008789 1024.094849,939.545044 
	C1024.012695,920.673889 1024.097290,902.265930 1023.982727,883.859131 
	C1023.743774,845.460693 1023.300720,807.063232 1023.153870,768.664612 
	C1023.104675,755.807373 1023.877258,742.948853 1023.962158,730.088928 
	C1024.108276,707.950500 1024.098755,685.810059 1023.974976,663.671448 
	C1023.917175,653.333679 1023.196960,642.997803 1023.214905,632.661865 
	C1023.236816,620.036804 1023.914185,607.413330 1023.962708,594.787903 
	C1024.081421,563.889282 1024.053833,532.989746 1023.962219,502.091003 
	C1023.941101,494.950317 1023.157288,487.809509 1023.199829,480.671600 
	C1023.275513,467.976501 1023.856628,455.284851 1023.966248,442.589508 
	C1024.109863,425.954346 1024.001465,409.316956 1024.001465,392.680542 
	C1024.001465,363.883575 1024.002075,335.086578 1024.001343,306.289612 
	C1024.000366,259.350342 1023.983276,212.411072 1024.004517,165.471802 
	C1024.012695,147.312027 1024.106812,129.152283 1024.161743,110.992516 
z"/>
<path fill="#FFFFFF" opacity="1.000000" stroke="none" 
	d="
M87.455948,1025.000000 
	C87.000000,1025.000000 86.992897,1024.585205 87.452827,1024.302734 
	C88.745514,1024.009155 89.578270,1023.988098 90.411026,1023.988098 
	C364.786682,1023.991150 639.162292,1023.994934 913.537964,1024.007202 
	C918.364197,1024.007446 923.190491,1024.111938 928.012573,1024.375732 
	C928.008484,1024.583862 928.000000,1025.000000 928.000000,1025.000000 
	C647.970642,1025.000000 367.941284,1025.000000 87.455948,1025.000000 
z"/>
<path fill="#FFFFFF" opacity="1.000000" stroke="none" 
	d="
M928.468628,1025.000000 
	C928.000000,1025.000000 928.008484,1024.583862 928.475159,1024.302490 
	C960.518005,1024.021118 992.094238,1024.021118 1024.171387,1024.021118 
	C1024.171387,995.698914 1024.171387,967.853821 1024.171387,940.008789 
	C1024.171387,940.008789 1024.585815,940.017517 1024.792969,940.008789 
	C1025.000000,968.265076 1025.000000,996.530090 1025.000000,1025.000000 
	C992.979370,1025.000000 960.958374,1025.000000 928.468628,1025.000000 
z"/>
<path fill="#FFFFFF" opacity="1.000000" stroke="none" 
	d="
M1024.094849,939.545044 
	C1024.171387,967.853821 1024.171387,995.698914 1024.171387,1024.021118 
	C992.094238,1024.021118 960.518005,1024.021118 928.479248,1024.094482 
	C923.190491,1024.111938 918.364197,1024.007446 913.537964,1024.007202 
	C639.162292,1023.994934 364.786682,1023.991150 90.411026,1023.988098 
	C89.578270,1023.988098 88.745514,1024.009155 87.448296,1024.095215 
	C60.660301,1024.106445 34.336765,1024.042480 8.013232,1023.979614 
	C6.204138,1023.975342 4.395024,1023.979126 2.295362,1023.979126 
	C2.295362,683.354004 2.295362,343.008179 2.295362,2.445498 
	C342.559937,2.445498 682.886597,2.445498 1024.021118,2.445498 
	C1024.021118,38.087673 1024.021118,74.076645 1024.091431,110.529068 
	C1024.106812,129.152283 1024.012695,147.312027 1024.004517,165.471802 
	C1023.983276,212.411072 1024.000366,259.350342 1024.001343,306.289612 
	C1024.002075,335.086578 1024.001465,363.883575 1024.001465,392.680542 
	C1024.001465,409.316956 1024.109863,425.954346 1023.966248,442.589508 
	C1023.856628,455.284851 1023.275513,467.976501 1023.199829,480.671600 
	C1023.157288,487.809509 1023.941101,494.950317 1023.962219,502.091003 
	C1024.053833,532.989746 1024.081421,563.889282 1023.962708,594.787903 
	C1023.914185,607.413330 1023.236816,620.036804 1023.214905,632.661865 
	C1023.196960,642.997803 1023.917175,653.333679 1023.974976,663.671448 
	C1024.098755,685.810059 1024.108276,707.950500 1023.962158,730.088928 
	C1023.877258,742.948853 1023.104675,755.807373 1023.153870,768.664612 
	C1023.300720,807.063232 1023.743774,845.460693 1023.982727,883.859131 
	C1024.097290,902.265930 1024.012695,920.673889 1024.094849,939.545044 
M473.500000,476.000641 
	C435.172241,476.000885 396.843842,476.114624 358.517395,475.891327 
	C352.017487,475.853485 345.304962,475.157623 339.069550,473.412292 
	C314.043427,466.407288 295.200256,443.198242 298.901733,412.894928 
	C300.524597,399.608948 306.343964,388.474792 315.440674,379.305389 
	C326.976257,367.677673 341.728668,362.441193 357.952148,362.157837 
	C370.496582,361.938721 383.057434,362.937408 395.611633,362.955353 
	C459.933105,363.047424 524.254883,363.042877 588.575989,362.866211 
	C591.905762,362.857056 595.984070,361.841278 598.423279,359.772522 
	C607.622803,351.969971 616.379150,343.633362 625.132141,335.318604 
	C637.155762,323.897064 649.025452,312.313538 661.789856,299.999939 
	C658.517822,299.999939 656.199158,300.008942 653.880554,299.998596 
	C601.442200,299.764374 549.004028,299.447021 496.565399,299.335968 
	C478.177002,299.297028 459.787994,299.902252 441.398407,299.969086 
	C410.301666,300.082092 379.201904,299.797699 348.108765,300.151550 
	C340.839539,300.234283 333.573822,302.098938 326.341156,303.345062 
	C322.190369,304.060150 318.109253,305.179871 314.095978,306.094818 
	C313.779724,306.439148 313.274780,307.491089 312.503052,307.751068 
	C305.194916,310.212921 298.512482,313.765839 291.980591,317.906158 
	C273.097015,329.875977 258.260376,345.426514 247.926773,365.299042 
	C237.070358,386.177002 232.777725,408.175964 234.849884,431.703217 
	C236.101868,445.918427 239.610443,459.342651 245.648666,472.097626 
	C255.921143,493.797028 271.979340,510.074188 292.584473,522.382385 
	C311.742706,533.826294 332.206329,539.916138 354.423157,539.966675 
	C402.082275,540.075195 449.742371,539.873779 497.400848,540.079224 
	C511.154205,540.138489 523.495300,545.010315 533.210693,554.845459 
	C549.801025,571.640381 555.661438,592.015381 549.799316,614.833374 
	C543.431702,639.618652 521.184998,656.908752 495.792297,656.954346 
	C422.471039,657.086121 349.149323,656.987000 275.828003,657.106018 
	C273.678864,657.109558 271.066895,658.011047 269.480072,659.411133 
	C266.091858,662.400818 263.316742,666.072388 260.147095,669.324768 
	C244.885223,684.985535 229.573563,700.597717 214.290421,716.237793 
	C213.648209,716.895020 213.114243,717.658020 212.016083,718.999329 
	C214.609283,718.999329 216.378387,718.999329 218.147476,718.999329 
	C308.633606,718.999329 399.119751,719.021667 489.605804,718.956177 
	C496.702026,718.951050 503.989105,719.240356 510.850250,717.793579 
	C521.939209,715.455566 533.432556,713.220520 543.535583,708.390930 
	C566.102600,697.603027 584.501160,681.653076 597.781555,659.913940 
	C609.852966,640.153809 614.467957,618.611816 614.819336,595.979553 
	C614.940063,588.204712 613.446655,580.315735 611.958069,572.620605 
	C605.743103,540.491882 589.517090,514.611938 562.429626,496.035736 
	C543.099243,482.779236 521.816284,475.218079 497.995209,475.962219 
	C490.170715,476.206635 482.332123,476.000671 473.500000,476.000641 
M636.574524,718.999390 
	C713.478516,718.999390 790.382507,718.999390 868.505737,718.999390 
	C856.833069,705.937866 845.890869,693.703735 834.960693,681.458923 
	C829.692566,675.557190 824.380493,669.692566 819.212830,663.703674 
	C815.406616,659.292725 811.425781,656.726868 804.905396,656.799622 
	C768.259216,657.208923 731.606140,656.994568 694.955383,656.998840 
	C686.953857,656.999756 686.994385,657.010742 686.996216,649.231384 
	C687.006836,604.063721 687.024414,558.896057 686.965576,513.728516 
	C686.956238,506.590546 686.361267,499.451996 686.398010,492.315582 
	C686.497253,473.020172 686.861938,453.726257 686.985901,434.430847 
	C687.091064,418.053802 687.007568,401.675476 687.007568,385.322357 
	C667.461853,385.322357 648.387451,385.322357 629.334290,385.322357 
	C629.334290,496.663788 629.334290,607.683228 629.334290,718.624512 
	C629.977112,718.791138 630.286987,718.934875 630.600037,718.942078 
	C632.264954,718.980103 633.930542,718.983826 636.574524,718.999390 
z"/>
<path fill="#FE3700" opacity="1.000000" stroke="none" 
	d="
M474.000000,476.000641 
	C482.332123,476.000671 490.170715,476.206635 497.995209,475.962219 
	C521.816284,475.218079 543.099243,482.779236 562.429626,496.035736 
	C589.517090,514.611938 605.743103,540.491882 611.958069,572.620605 
	C613.446655,580.315735 614.940063,588.204712 614.819336,595.979553 
	C614.467957,618.611816 609.852966,640.153809 597.781555,659.913940 
	C584.501160,681.653076 566.102600,697.603027 543.535583,708.390930 
	C533.432556,713.220520 521.939209,715.455566 510.850250,717.793579 
	C503.989105,719.240356 496.702026,718.951050 489.605804,718.956177 
	C399.119751,719.021667 308.633606,718.999329 218.147476,718.999329 
	C216.378387,718.999329 214.609283,718.999329 212.016083,718.999329 
	C213.114243,717.658020 213.648209,716.895020 214.290421,716.237793 
	C229.573563,700.597717 244.885223,684.985535 260.147095,669.324768 
	C263.316742,666.072388 266.091858,662.400818 269.480072,659.411133 
	C271.066895,658.011047 273.678864,657.109558 275.828003,657.106018 
	C349.149323,656.987000 422.471039,657.086121 495.792297,656.954346 
	C521.184998,656.908752 543.431702,639.618652 549.799316,614.833374 
	C555.661438,592.015381 549.801025,571.640381 533.210693,554.845459 
	C523.495300,545.010315 511.154205,540.138489 497.400848,540.079224 
	C449.742371,539.873779 402.082275,540.075195 354.423157,539.966675 
	C332.206329,539.916138 311.742706,533.826294 292.584473,522.382385 
	C271.979340,510.074188 255.921143,493.797028 245.648666,472.097626 
	C239.610443,459.342651 236.101868,445.918427 234.849884,431.703217 
	C232.777725,408.175964 237.070358,386.177002 247.926773,365.299042 
	C258.260376,345.426514 273.097015,329.875977 291.980591,317.906158 
	C298.512482,313.765839 305.194916,310.212921 312.503052,307.751068 
	C313.274780,307.491089 313.779724,306.439148 314.095978,306.094818 
	C318.109253,305.179871 322.190369,304.060150 326.341156,303.345062 
	C333.573822,302.098938 340.839539,300.234283 348.108765,300.151550 
	C379.201904,299.797699 410.301666,300.082092 441.398407,299.969086 
	C459.787994,299.902252 478.177002,299.297028 496.565399,299.335968 
	C549.004028,299.447021 601.442200,299.764374 653.880554,299.998596 
	C656.199158,300.008942 658.517822,299.999939 661.789856,299.999939 
	C649.025452,312.313538 637.155762,323.897064 625.132141,335.318604 
	C616.379150,343.633362 607.622803,351.969971 598.423279,359.772522 
	C595.984070,361.841278 591.905762,362.857056 588.575989,362.866211 
	C524.254883,363.042877 459.933105,363.047424 395.611633,362.955353 
	C383.057434,362.937408 370.496582,361.938721 357.952148,362.157837 
	C341.728668,362.441193 326.976257,367.677673 315.440674,379.305389 
	C306.343964,388.474792 300.524597,399.608948 298.901733,412.894928 
	C295.200256,443.198242 314.043427,466.407288 339.069550,473.412292 
	C345.304962,475.157623 352.017487,475.853485 358.517395,475.891327 
	C396.843842,476.114624 435.172241,476.000885 474.000000,476.000641 
z"/>
<path fill="#FE3700" opacity="1.000000" stroke="none" 
	d="
M636.085205,718.999390 
	C633.930542,718.983826 632.264954,718.980103 630.600037,718.942078 
	C630.286987,718.934875 629.977112,718.791138 629.334290,718.624512 
	C629.334290,607.683228 629.334290,496.663788 629.334290,385.322357 
	C648.387451,385.322357 667.461853,385.322357 687.007568,385.322357 
	C687.007568,401.675476 687.091064,418.053802 686.985901,434.430847 
	C686.861938,453.726257 686.497253,473.020172 686.398010,492.315582 
	C686.361267,499.451996 686.956238,506.590546 686.965576,513.728516 
	C687.024414,558.896057 687.006836,604.063721 686.996216,649.231384 
	C686.994385,657.010742 686.953857,656.999756 694.955383,656.998840 
	C731.606140,656.994568 768.259216,657.208923 804.905396,656.799622 
	C811.425781,656.726868 815.406616,659.292725 819.212830,663.703674 
	C824.380493,669.692566 829.692566,675.557190 834.960693,681.458923 
	C845.890869,693.703735 856.833069,705.937866 868.505737,718.999390 
	C790.382507,718.999390 713.478516,718.999390 636.085205,718.999390 
z"/>
</svg>