<svg version="1.1" id="Layer_1" xmlns="http://www.w3.org/2000/svg" xmlns:xlink="http://www.w3.org/1999/xlink" x="0px" y="0px"
	 width="100%" viewBox="212 299 656 420" enable-background="new 0 0 1024 1024" xml:space="preserve">
<path fill="#FE3700" opacity="1.000000" stroke="none" 
	d="
M474.000000,476.000641 
	C482.332123,476.000671 490.170715,476.206635 497.995209,475.962219 
	C521.816284,475.218079 543.099243,482.779236 562.429626,496.035736 
	C589.517090,514.611938 605.743103,540.491882 611.958069,572.620605 
	C613.446655,580.315735 614.940063,588.204712 614.819336,595.979553 
	C614.467957,618.611816 609.852966,640.153809 597.781555,659.913940 
	C584.501160,681.653076 566.102600,697.603027 543.535583,708.390930 
	C533.432556,713.220520 521.939209,715.455566 510.850250,717.793579 
	C503.989105,719.240356 496.702026,718.951050 489.605804,718.956177 
	C399.119751,719.021667 308.633606,718.999329 218.147476,718.999329 
	C216.378387,718.999329 214.609283,718.999329 212.016083,718.999329 
	C213.114243,717.658020 213.648209,716.895020 214.290421,716.237793 
	C229.573563,700.597717 244.885223,684.985535 260.147095,669.324768 
	C263.316742,666.072388 266.091858,662.400818 269.480072,659.411133 
	C271.066895,658.011047 273.678864,657.109558 275.828003,657.106018 
	C349.149323,656.987000 422.471039,657.086121 495.792297,656.954346 
	C521.184998,656.908752 543.431702,639.618652 549.799316,614.833374 
	C555.661438,592.015381 549.801025,571.640381 533.210693,554.845459 
	C523.495300,545.010315 511.154205,540.138489 497.400848,540.079224 
	C449.742371,539.873779 402.082275,540.075195 354.423157,539.966675 
	C332.206329,539.916138 311.742706,533.826294 292.584473,522.382385 
	C271.979340,510.074188 255.921143,493.797028 245.648666,472.097626 
	C239.610443,459.342651 236.101868,445.918427 234.849884,431.703217 
	C232.777725,408.175964 237.070358,386.177002 247.926773,365.299042 
	C258.260376,345.426514 273.097015,329.875977 291.980591,317.906158 
	C298.512482,313.765839 305.194916,310.212921 312.503052,307.751068 
	C313.274780,307.491089 313.779724,306.439148 314.095978,306.094818 
	C318.109253,305.179871 322.190369,304.060150 326.341156,303.345062 
	C333.573822,302.098938 340.839539,300.234283 348.108765,300.151550 
	C379.201904,299.797699 410.301666,300.082092 441.398407,299.969086 
	C459.787994,299.902252 478.177002,299.297028 496.565399,299.335968 
	C549.004028,299.447021 601.442200,299.764374 653.880554,299.998596 
	C656.199158,300.008942 658.517822,299.999939 661.789856,299.999939 
	C649.025452,312.313538 637.155762,323.897064 625.132141,335.318604 
	C616.379150,343.633362 607.622803,351.969971 598.423279,359.772522 
	C595.984070,361.841278 591.905762,362.857056 588.575989,362.866211 
	C524.254883,363.042877 459.933105,363.047424 395.611633,362.955353 
	C383.057434,362.937408 370.496582,361.938721 357.952148,362.157837 
	C341.728668,362.441193 326.976257,367.677673 315.440674,379.305389 
	C306.343964,388.474792 300.524597,399.608948 298.901733,412.894928 
	C295.200256,443.198242 314.043427,466.407288 339.069550,473.412292 
	C345.304962,475.157623 352.017487,475.853485 358.517395,475.891327 
	C396.843842,476.114624 435.172241,476.000885 474.000000,476.000641 
z"/>
<path fill="#FE3700" opacity="1.000000" stroke="none" 
	d="
M636.085205,718.999390 
	C633.930542,718.983826 632.264954,718.980103 630.600037,718.942078 
	C630.286987,718.934875 629.977112,718.791138 629.334290,718.624512 
	C629.334290,607.683228 629.334290,496.663788 629.334290,385.322357 
	C648.387451,385.322357 667.461853,385.322357 687.007568,385.322357 
	C687.007568,401.675476 687.091064,418.053802 686.985901,434.430847 
	C686.861938,453.726257 686.497253,473.020172 686.398010,492.315582 
	C686.361267,499.451996 686.956238,506.590546 686.965576,513.728516 
	C687.024414,558.896057 687.006836,604.063721 686.996216,649.231384 
	C686.994385,657.010742 686.953857,656.999756 694.955383,656.998840 
	C731.606140,656.994568 768.259216,657.208923 804.905396,656.799622 
	C811.425781,656.726868 815.406616,659.292725 819.212830,663.703674 
	C824.380493,669.692566 829.692566,675.557190 834.960693,681.458923 
	C845.890869,693.703735 856.833069,705.937866 868.505737,718.999390 
	C790.382507,718.999390 713.478516,718.999390 636.085205,718.999390 
z"/>
</svg>